<svg xmlns="http://www.w3.org/2000/svg" viewBox="0 0 256 256" width="256" height="256" role="img" aria-label="claude-status">
  <title>claude-status</title>
  <defs>
    <linearGradient id="a1" gradientUnits="userSpaceOnUse" x1="128.00" y1="17.66" x2="175.92" y2="28.61">
      <stop offset="0" stop-color="#43B047"/><stop offset="1" stop-color="#5DB644"/>
    </linearGradient>
    <linearGradient id="a2" gradientUnits="userSpaceOnUse" x1="174.98" y1="28.17" x2="213.67" y2="58.47">
      <stop offset="0" stop-color="#5DB644"/><stop offset="1" stop-color="#77BB42"/>
    </linearGradient>
    <linearGradient id="a3" gradientUnits="userSpaceOnUse" x1="213.02" y1="57.67" x2="235.12" y2="101.57">
      <stop offset="0" stop-color="#77BB42"/><stop offset="1" stop-color="#91C13F"/>
    </linearGradient>
    <linearGradient id="a4" gradientUnits="userSpaceOnUse" x1="234.87" y1="100.56" x2="236.18" y2="149.70">
      <stop offset="0" stop-color="#91C13F"/><stop offset="1" stop-color="#ABC63D"/>
    </linearGradient>
    <linearGradient id="a5" gradientUnits="userSpaceOnUse" x1="236.38" y1="148.67" x2="216.65" y2="193.69">
      <stop offset="0" stop-color="#ABC63D"/><stop offset="1" stop-color="#C5CC3A"/>
    </linearGradient>
    <linearGradient id="a6" gradientUnits="userSpaceOnUse" x1="217.26" y1="192.85" x2="181.15" y2="224.69">
      <stop offset="0" stop-color="#C5CC3A"/><stop offset="1" stop-color="#DFD238"/>
    </linearGradient>
    <linearGradient id="a7" gradientUnits="userSpaceOnUse" x1="128.00" y1="42.75" x2="169.77" y2="53.69">
      <stop offset="0" stop-color="#43B047"/><stop offset="1" stop-color="#61B644"/>
    </linearGradient>
    <linearGradient id="a8" gradientUnits="userSpaceOnUse" x1="169.07" y1="53.30" x2="200.40" y2="83.00">
      <stop offset="0" stop-color="#61B644"/><stop offset="1" stop-color="#7FBD41"/>
    </linearGradient>
    <linearGradient id="a9" gradientUnits="userSpaceOnUse" x1="199.98" y1="82.32" x2="213.13" y2="123.45">
      <stop offset="0" stop-color="#7FBD41"/><stop offset="1" stop-color="#9CC33E"/>
    </linearGradient>
    <linearGradient id="a10" gradientUnits="userSpaceOnUse" x1="213.08" y1="122.65" x2="204.79" y2="165.02">
      <stop offset="0" stop-color="#9CC33E"/><stop offset="1" stop-color="#BACA3B"/>
    </linearGradient>
    <linearGradient id="a11" gradientUnits="userSpaceOnUse" x1="205.13" y1="164.30" x2="177.46" y2="197.44">
      <stop offset="0" stop-color="#BACA3B"/><stop offset="1" stop-color="#D8D039"/>
    </linearGradient>
    <linearGradient id="a12" gradientUnits="userSpaceOnUse" x1="178.11" y1="196.97" x2="137.89" y2="212.67">
      <stop offset="0" stop-color="#D8D039"/><stop offset="1" stop-color="#F6D636"/>
    </linearGradient>
    <linearGradient id="a13" gradientUnits="userSpaceOnUse" x1="138.68" y1="212.58" x2="95.87" y2="206.96">
      <stop offset="0" stop-color="#F6D636"/><stop offset="1" stop-color="#FDC628"/>
    </linearGradient>
    <linearGradient id="a14" gradientUnits="userSpaceOnUse" x1="96.62" y1="207.26" x2="61.81" y2="181.72">
      <stop offset="0" stop-color="#FDC628"/><stop offset="1" stop-color="#FCAD17"/>
    </linearGradient>
    <linearGradient id="a15" gradientUnits="userSpaceOnUse" x1="62.32" y1="182.34" x2="44.26" y2="143.97">
      <stop offset="0" stop-color="#FCAD17"/><stop offset="1" stop-color="#FB9506"/>
    </linearGradient>
    <linearGradient id="a16" gradientUnits="userSpaceOnUse" x1="128.00" y1="67.84" x2="155.82" y2="74.66">
      <stop offset="0" stop-color="#43B047"/><stop offset="1" stop-color="#5FB644"/>
    </linearGradient>
    <linearGradient id="a17" gradientUnits="userSpaceOnUse" x1="155.31" y1="74.40" x2="177.00" y2="93.10">
      <stop offset="0" stop-color="#5FB644"/><stop offset="1" stop-color="#7BBC42"/>
    </linearGradient>
    <linearGradient id="a18" gradientUnits="userSpaceOnUse" x1="176.67" y1="92.64" x2="187.51" y2="119.15">
      <stop offset="0" stop-color="#7BBC42"/><stop offset="1" stop-color="#97C23F"/>
    </linearGradient>
    <linearGradient id="a19" gradientUnits="userSpaceOnUse" x1="187.42" y1="118.59" x2="185.22" y2="146.59">
      <stop offset="0" stop-color="#97C23F"/><stop offset="1" stop-color="#B3C83C"/>
    </linearGradient>
    <linearGradient id="a20" gradientUnits="userSpaceOnUse" x1="128.00" y1="92.93" x2="145.73" y2="97.74">
      <stop offset="0" stop-color="#4FC3F7"/><stop offset="1" stop-color="#56BBF7"/>
    </linearGradient>
    <linearGradient id="a21" gradientUnits="userSpaceOnUse" x1="145.45" y1="97.57" x2="158.43" y2="110.57">
      <stop offset="0" stop-color="#56BBF7"/><stop offset="1" stop-color="#5DB4F7"/>
    </linearGradient>
    <linearGradient id="a22" gradientUnits="userSpaceOnUse" x1="158.27" y1="110.28" x2="163.07" y2="128.02">
      <stop offset="0" stop-color="#5DB4F7"/><stop offset="1" stop-color="#64ACF7"/>
    </linearGradient>
    <linearGradient id="a23" gradientUnits="userSpaceOnUse" x1="163.07" y1="127.69" x2="158.42" y2="145.46">
      <stop offset="0" stop-color="#64ACF7"/><stop offset="1" stop-color="#6BA5F8"/>
    </linearGradient>
    <linearGradient id="a24" gradientUnits="userSpaceOnUse" x1="158.58" y1="145.17" x2="145.70" y2="158.28">
      <stop offset="0" stop-color="#6BA5F8"/><stop offset="1" stop-color="#729DF8"/>
    </linearGradient>
    <linearGradient id="a25" gradientUnits="userSpaceOnUse" x1="145.99" y1="158.11" x2="128.30" y2="163.07">
      <stop offset="0" stop-color="#729DF8"/><stop offset="1" stop-color="#7895F8"/>
    </linearGradient>
    <linearGradient id="a26" gradientUnits="userSpaceOnUse" x1="128.63" y1="163.07" x2="111.10" y2="158.73">
      <stop offset="0" stop-color="#7895F8"/><stop offset="1" stop-color="#7F8EF8"/>
    </linearGradient>
  </defs>
  <rect width="256" height="256" rx="52" fill="#2B2E33"/>
  <circle cx="128.00" cy="128.00" r="119.04" fill="#131417"/>
  <g fill="none" stroke-width="17.41" stroke-linecap="butt">
    <g stroke="#3B3C40">
      <circle cx="128.00" cy="128.00" r="110.34"/>
      <circle cx="128.00" cy="128.00" r="85.25"/>
      <circle cx="128.00" cy="128.00" r="60.16"/>
      <circle cx="128.00" cy="128.00" r="35.07"/>
    </g>
    <g>
      <path stroke="url(#a1)" d="M 128.00 17.66 A 110.34 110.34 0 0 1 175.92 28.61"/>
      <path stroke="url(#a2)" d="M 174.98 28.17 A 110.34 110.34 0 0 1 213.67 58.47"/>
      <path stroke="url(#a3)" d="M 213.02 57.67 A 110.34 110.34 0 0 1 235.12 101.57"/>
      <path stroke="url(#a4)" d="M 234.87 100.56 A 110.34 110.34 0 0 1 236.18 149.70"/>
      <path stroke="url(#a5)" d="M 236.38 148.67 A 110.34 110.34 0 0 1 216.65 193.69"/>
      <path stroke="url(#a6)" d="M 217.26 192.85 A 110.34 110.34 0 0 1 181.15 224.69"/>
    </g>
    <g>
      <path stroke="url(#a7)" d="M 128.00 42.75 A 85.25 85.25 0 0 1 169.77 53.69"/>
      <path stroke="url(#a8)" d="M 169.07 53.30 A 85.25 85.25 0 0 1 200.40 83.00"/>
      <path stroke="url(#a9)" d="M 199.98 82.32 A 85.25 85.25 0 0 1 213.13 123.45"/>
      <path stroke="url(#a10)" d="M 213.08 122.65 A 85.25 85.25 0 0 1 204.79 165.02"/>
      <path stroke="url(#a11)" d="M 205.13 164.30 A 85.25 85.25 0 0 1 177.46 197.44"/>
      <path stroke="url(#a12)" d="M 178.11 196.97 A 85.25 85.25 0 0 1 137.89 212.67"/>
      <path stroke="url(#a13)" d="M 138.68 212.58 A 85.25 85.25 0 0 1 95.87 206.96"/>
      <path stroke="url(#a14)" d="M 96.62 207.26 A 85.25 85.25 0 0 1 61.81 181.72"/>
      <path stroke="url(#a15)" d="M 62.32 182.34 A 85.25 85.25 0 0 1 44.26 143.97"/>
    </g>
    <g>
      <path stroke="url(#a16)" d="M 128.00 67.84 A 60.16 60.16 0 0 1 155.82 74.66"/>
      <path stroke="url(#a17)" d="M 155.31 74.40 A 60.16 60.16 0 0 1 177.00 93.10"/>
      <path stroke="url(#a18)" d="M 176.67 92.64 A 60.16 60.16 0 0 1 187.51 119.15"/>
      <path stroke="url(#a19)" d="M 187.42 118.59 A 60.16 60.16 0 0 1 185.22 146.59"/>
    </g>
    <g>
      <path stroke="url(#a20)" d="M 128.00 92.93 A 35.07 35.07 0 0 1 145.73 97.74"/>
      <path stroke="url(#a21)" d="M 145.45 97.57 A 35.07 35.07 0 0 1 158.43 110.57"/>
      <path stroke="url(#a22)" d="M 158.27 110.28 A 35.07 35.07 0 0 1 163.07 128.02"/>
      <path stroke="url(#a23)" d="M 163.07 127.69 A 35.07 35.07 0 0 1 158.42 145.46"/>
      <path stroke="url(#a24)" d="M 158.58 145.17 A 35.07 35.07 0 0 1 145.70 158.28"/>
      <path stroke="url(#a25)" d="M 145.99 158.11 A 35.07 35.07 0 0 1 128.30 163.07"/>
      <path stroke="url(#a26)" d="M 128.63 163.07 A 35.07 35.07 0 0 1 111.10 158.73"/>
    </g>
  </g>
  <g stroke-width="3.58" stroke-linecap="butt">
    <line x1="90.59" y1="222.50" x2="84.18" y2="238.68" stroke="#E1E1E1"/>
    <line x1="128.00" y1="204.54" x2="128.00" y2="221.95" stroke="#181818"/>
    <line x1="179.35" y1="131.23" x2="196.73" y2="132.32" stroke="#181818"/>
  </g>
</svg>
